<svg xmlns="http://www.w3.org/2000/svg" width="171" height="89" viewBox="0 0 171 89"><defs><mask id="csssb" width="2" height="2" x="-1" y="-1"><path fill="#fff" d="M1 0h164v81H1z"/><path d="M4.11 11h136.669c.144-.41.38-.794.707-1.122l8.486-8.485a3 3 0 0 1 4.242 0l8.486 8.485c.656.657.945 1.541.866 2.399.342.487.543 1.082.543 1.723v64a3 3 0 0 1-3 3h-157a3 3 0 0 1-3-3V14a3 3 0 0 1 3-3z"/></mask><filter id="csssa" width="196.5" height="115.3" x="-14" y="-15" filterUnits="userSpaceOnUse"><feOffset dx="2.5" dy="4.3" in="SourceGraphic" result="FeOffset1058Out"/><feGaussianBlur in="FeOffset1058Out" result="FeGaussianBlur1059Out" stdDeviation="2 2"/></filter><linearGradient id="csssc" x1="83.11" x2="82.11" y1="81" y2=".51" gradientUnits="userSpaceOnUse"><stop offset="0" stop-color="#fff"/><stop offset="1" stop-color="#fff"/></linearGradient></defs><g><g><g filter="url(#csssa)"><path fill="none" d="M4.11 11h136.669c.144-.41.38-.794.707-1.122l8.486-8.485a3 3 0 0 1 4.242 0l8.486 8.485c.656.657.945 1.541.866 2.399.342.487.543 1.082.543 1.723v64a3 3 0 0 1-3 3h-157a3 3 0 0 1-3-3V14a3 3 0 0 1 3-3z" mask="url(&quot;#csssb&quot;)"/><path fill-opacity=".2" d="M4.11 11h136.669c.144-.41.38-.794.707-1.122l8.486-8.485a3 3 0 0 1 4.242 0l8.486 8.485c.656.657.945 1.541.866 2.399.342.487.543 1.082.543 1.723v64a3 3 0 0 1-3 3h-157a3 3 0 0 1-3-3V14a3 3 0 0 1 3-3z"/></g><path fill="url(#csssc)" d="M4.11 11h136.669c.144-.41.38-.794.707-1.122l8.486-8.485a3 3 0 0 1 4.242 0l8.486 8.485c.656.657.945 1.541.866 2.399.342.487.543 1.082.543 1.723v64a3 3 0 0 1-3 3h-157a3 3 0 0 1-3-3V14a3 3 0 0 1 3-3z"/></g></g></svg>